<?xml version="1.0" encoding="utf-8"?>
<!-- Generator: Adobe Illustrator 22.0.1, SVG Export Plug-In . SVG Version: 6.00 Build 0)  -->
<svg version="1.1" id="Layer_1" xmlns="http://www.w3.org/2000/svg" xmlns:xlink="http://www.w3.org/1999/xlink" x="0px" y="0px"
	 viewBox="0 0 69.5 69.5" style="enable-background:new 0 0 69.5 69.5;" xml:space="preserve">
<style type="text/css">
	.st0{opacity:0.3;enable-background:new    ;}
	.st1{fill:#8B56BF;}
	.st2{fill:#E0DEE4;}
</style>
<script  id="custom-useragent-string" xmlns=""></script>
<circle class="st0" cx="34.7" cy="34.7" r="34.7"/>
<path class="st1" d="M51.7,37.1c0.1-0.8,0.2-1.5,0.2-2.4s-0.1-1.6-0.2-2.4l4.9-3.5c0.4-0.3,0.7-1,0.3-1.5l-4.8-8
	c-0.3-0.5-0.9-0.8-1.4-0.4l-5.4,2.5c-1.3-1-2.6-1.7-4.1-2.4l-0.5-6c-0.1-0.5-0.5-1-1.1-1h-9.4c-0.5,0-1.1,0.4-1.1,1l-0.5,6
	c-1.5,0.7-2.9,1.4-4.1,2.4l-5.4-2.5c-0.5-0.2-1.2,0-1.4,0.4l-4.7,8c-0.3,0.5-0.1,1.2,0.3,1.5l4.9,3.5c-0.1,0.8-0.2,1.5-0.2,2.4
	s0.1,1.6,0.2,2.4l-5.1,3.5c-0.4,0.3-0.7,1-0.3,1.5l4.7,8c0.3,0.5,0.9,0.8,1.4,0.4l5.4-2.5c1.3,1,2.6,1.7,4.1,2.4l0.5,6
	c0.1,0.5,0.5,1,1.1,1h9.4c0.5,0,1.1-0.4,1.1-1l0.5-6c1.5-0.7,2.9-1.4,4.1-2.4l5.4,2.5c0.5,0.2,1.2,0,1.4-0.4l4.7-8
	c0.3-0.5,0.1-1.2-0.3-1.5L51.7,37.1z M36.6,45.4c-7.4,1.2-13.8-5.2-12.6-12.6c0.8-4.5,4.4-8.1,8.9-8.9c7.4-1.2,13.8,5.2,12.6,12.6
	C44.7,41.1,41.1,44.7,36.6,45.4z"/>
<path class="st2" d="M34.7,21.7c-7.2,0-13.1,5.9-13.1,13.1s5.9,13.1,13.1,13.1S47.8,42,47.8,34.8S41.9,21.7,34.7,21.7z M34.7,40.2
	c-3,0-5.4-2.4-5.4-5.4s2.4-5.4,5.4-5.4s5.4,2.4,5.4,5.4C40.1,37.8,37.7,40.2,34.7,40.2z"/>
</svg>
