<?xml version="1.0" encoding="utf-8"?>
<!-- Generator: Adobe Illustrator 22.0.1, SVG Export Plug-In . SVG Version: 6.00 Build 0)  -->
<svg version="1.1" xmlns="http://www.w3.org/2000/svg" xmlns:xlink="http://www.w3.org/1999/xlink" x="0px" y="0px"
	 viewBox="0 0 728 90" style="enable-background:new 0 0 728 90;" xml:space="preserve">
<style type="text/css">
	.st0{fill:#2B1D33;}
	.st1{fill:#6E4783;}
	.st2{fill:#7B608A;}
	.st3{fill:#603975;}
	.st4{fill:#704D84;}
	.st5{fill:#6C4581;}
	.st6{fill:#512F63;}
	.st7{fill:#694080;}
	.st8{fill:#4D2C5E;}
	.st9{fill:#6D4682;}
	.st10{fill:#6B4480;}
	.st11{fill:#6B4080;}
	.st12{fill:#492B5B;}
	.st13{fill:#432754;}
	.st14{fill:#563269;}
	.st15{fill:#765887;}
	.st16{fill:#5D3970;}
	.st17{fill:#4E2C5F;}
	.st18{fill:#7C628B;}
	.st19{fill:#633C78;}
	.st20{fill:#482C5C;}
	.st21{fill:#3E244D;}
	.st22{fill:#7C698B;}
	.st23{fill:#68407F;}
	.st24{fill:#775A88;}
	.st25{fill:#613978;}
	.st26{fill:#6F4B83;}
	.st27{fill:#3A2448;}
	.st28{fill:#472B58;}
	.st29{fill:#643C7B;}
	.st30{fill:#704884;}
	.st31{fill:#826D8E;}
	.st32{fill:#7D638B;}
	.st33{fill:#80688C;}
	.st34{fill:#3D234B;}
	.st35{fill:#332040;}
	.st36{fill:#59316D;}
</style>
<g id="Bg">
	<polygon class="st0" points="0,0 728,0 728,90 0,90.1 	"/>
</g>
<g id="Polygons">
	<polygon class="st1" points="25.8,19 0,10.3 0,58 18.9,72.2 	"/>
	<polygon class="st2" points="62,0 0,0 0,10.3 25.8,19 	"/>
	<polygon class="st3" points="25.8,19 116,46.8 18.9,72.2 	"/>
	<polygon class="st4" points="25.8,19 62,0 116,46.8 	"/>
	<polygon class="st5" points="62,0 155.5,6.8 116,46.8 	"/>
	<polygon class="st6" points="116,46.8 144.9,90.1 100.3,90 18.9,72.2 	"/>
	<polygon class="st7" points="116,46.8 155.5,6.8 167.8,73.3 	"/>
	<polygon class="st8" points="116,46.8 144.6,90.1 159,90 167.8,73.3 	"/>
	<path class="st6" d="M180.3,79.8"/>
	<path class="st9" d="M155.5,6.8"/>
	<polygon class="st10" points="155.5,6.8 170.5,0 211,0 167.8,73.3 	"/>
	<polygon class="st11" points="211,0 261,0 319.5,34.3 167.8,73.3 	"/>
	<polygon class="st12" points="319.5,34.3 270.5,90 202,90 167.8,73.3 	"/>
	<polygon class="st13" points="202,90 167.8,73.3 159,90 	"/>
	<polygon class="st14" points="319.5,34.3 338.3,90 270,90 	"/>
	<polygon class="st15" points="261,0 314,0 319.5,34.3 	"/>
	<polygon class="st4" points="319.5,34.3 396.5,16.2 339.5,0 314,0 	"/>
	<polygon class="st16" points="319.5,34.3 396.5,16.2 382.2,77.8 	"/>
	<polygon class="st17" points="319.5,34.3 382.2,77.8 372.5,90 338,90 	"/>
	<polygon class="st18" points="396.3,16.2 410.3,0 339,0 	"/>
	<polygon class="st19" points="396.3,16.2 458.1,58.9 382.2,77.8 	"/>
	<polygon class="st20" points="458.1,58.9 545.8,90 438,90 382.2,77.8 	"/>
	<polygon class="st21" points="382.2,77.8 372.5,90 438,90 	"/>
	<polygon class="st22" points="396.1,16.2 448.3,21.3 446,0 410,0 	"/>
	<polygon class="st23" points="448.3,21.3 458.1,58.9 396.1,16.2 	"/>
	<polygon class="st24" points="448.3,21.3 543.3,0 446,0 	"/>
	<polygon class="st10" points="448.3,21.3 543.3,0 458.1,58.9 	"/>
	<polygon class="st25" points="458.1,58.9 543.3,0 564,90 545.8,90 	"/>
	<polygon class="st16" points="543.3,0 633.1,41.5 573.5,90 564,90 	"/>
	<polygon class="st26" points="543.3,0 633.1,41.5 643.5,4.8 	"/>
	<polygon class="st27" points="633.1,41.5 619.3,90 573,90 	"/>
	<polygon class="st28" points="633.1,41.5 728,85.3 728,90 619,90 	"/>
	<polygon class="st29" points="643.5,4.8 728,81.3 728,85.3 633.1,41.5 	"/>
	<polygon class="st4" points="643.5,4.8 645,0 671,0 728,74 728,81.3 	"/>
	<polygon class="st30" points="671,0 728,0 728,74 	"/>
	<polygon class="st31" points="645,0 543.3,0 643.5,4.8 	"/>
	<polygon class="st32" points="155.5,6.8 144.9,0 62,0 	"/>
	<polygon class="st33" points="155.5,6.8 170.5,0 144.9,0 	"/>
	<polygon class="st34" points="100.3,90 18.9,72.2 54,90 	"/>
	<polygon class="st35" points="18.9,72.2 54,90 7,90 	"/>
	<polygon class="st0" points="18.9,72.2 7,90 0,90 0,80 	"/>
	<polygon class="st36" points="18.9,72.2 0,58 0,80 	"/>
	<path class="st36" d="M-23.5,51"/>
</g>
<g id="IP2Net">
</g>
<g id="Reddit">
</g>
<g id="Lines">
</g>
</svg>
