<?xml version="1.0" encoding="utf-8"?>
<!-- Generator: Adobe Illustrator 22.0.1, SVG Export Plug-In . SVG Version: 6.00 Build 0)  -->
<svg version="1.1" id="Layer_1" xmlns="http://www.w3.org/2000/svg" xmlns:xlink="http://www.w3.org/1999/xlink" x="0px" y="0px"
	 viewBox="0 0 340.3 69.1" style="enable-background:new 0 0 340.3 69.1;" xml:space="preserve">
<style type="text/css">
	.st0{enable-background:new    ;}
	.st1{fill:#FFFFFF;}
	.st2{fill:#FFFFFF;stroke:#FFFFFF;stroke-width:4;stroke-miterlimit:10;}
</style>
<g class="st0">
	<path class="st1" d="M1.7,35.5V9.7h4.6v25.8H1.7z"/>
	<path class="st1" d="M27.1,26v9.5h-4.6V9.8c3-0.1,4.8-0.2,5.3-0.2c4.1,0,7,0.6,8.9,1.9s2.8,3.2,2.8,5.8c0,5.9-3.5,8.9-10.4,8.9
		C28.6,26.1,27.9,26.1,27.1,26z M27.1,13.7V22c0.8,0.1,1.4,0.1,1.8,0.1c2.1,0,3.6-0.3,4.6-1s1.4-1.8,1.4-3.4c0-2.7-2.2-4-6.5-4
		C28,13.6,27.5,13.7,27.1,13.7z"/>
	<path class="st1" d="M53.9,35.5v-1.3l8.2-12c1.6-2.4,2.4-4.4,2.4-6.1c0-1.9-1.2-2.9-3.5-2.9c-1.8,0-3.2,0.9-4.3,2.8l-3.1-2.4
		c0.6-1.2,1.6-2.3,2.9-3.1s2.8-1.2,4.3-1.2c2.6,0,4.7,0.6,6.2,1.8s2.2,2.9,2.2,5c0,2-1,4.4-2.9,7.3l-5.3,8h9.7v4.1H53.9z"/>
	<path class="st1" d="M86.2,33.2c0-0.9,0.3-1.6,0.9-2.2s1.4-0.9,2.2-0.9s1.6,0.3,2.2,0.9s0.9,1.4,0.9,2.2s-0.3,1.6-0.9,2.3
		s-1.4,0.9-2.2,0.9s-1.6-0.3-2.2-0.9S86.2,34.1,86.2,33.2z"/>
	<path class="st1" d="M126.7,35.9l-12.5-16.3v16h-4.4V9.7h2.2l12.2,15.5V9.7h4.4v26.1h-1.9V35.9z"/>
	<path class="st1" d="M149.3,13.8v6h8.5v3.9h-8.5v7.7H161v4.1h-16.2V9.7h16.4v4.1C161.2,13.8,149.3,13.8,149.3,13.8z"/>
	<path class="st1" d="M185.9,13.8v21.7h-4.6V13.8h-8.2V9.7h21.3v4.1C194.4,13.8,185.9,13.8,185.9,13.8z"/>
	<path class="st1" d="M228.4,35.9h-1.9l-5.6-16.2l-5.5,16.2h-1.9L205,9.8h4.8l4.8,15.5l5.2-15.5h2l5.2,15.5l4.8-15.5h4.8L228.4,35.9
		z"/>
	<path class="st1" d="M249,22.4c0-3.7,1-6.8,3-9.3s4.7-3.8,8.1-3.8c3.7,0,6.5,1.1,8.5,3.4s2.9,5.5,2.9,9.7s-1,7.4-3.1,9.9
		s-4.9,3.7-8.7,3.7c-3.5,0-6.1-1.2-8-3.6S249,26.6,249,22.4z M253.8,22.4c0,3,0.5,5.3,1.5,7c1,1.7,2.5,2.5,4.4,2.5
		c2.3,0,4-0.8,5.2-2.4s1.8-4,1.8-7c0-6-2.2-9.1-6.7-9.1c-2,0-3.6,0.8-4.7,2.5S253.8,19.6,253.8,22.4z"/>
	<path class="st1" d="M300.9,35.5L294,24.9c-0.7,0-1.7-0.1-2.9-0.1v10.8h-4.7V9.7c0.3,0,1.2,0,3-0.1s3.1-0.1,4.2-0.1
		c6.5,0,9.8,2.5,9.8,7.6c0,1.5-0.5,2.9-1.4,4.2s-2,2.1-3.4,2.7l7.6,11.6L300.9,35.5L300.9,35.5z M291.2,13.7v7.2
		c0.8,0.1,1.5,0.1,1.9,0.1c1.9,0,3.3-0.3,4.2-0.8s1.3-1.6,1.3-3.1c0-1.3-0.5-2.2-1.4-2.7s-2.4-0.8-4.5-0.8
		C292.2,13.6,291.7,13.7,291.2,13.7z"/>
	<path class="st1" d="M333.9,35.5l-7.2-11l-2.9,3.9v7h-4.6V9.7h4.6V22l8.8-12.3h5.2L329.7,21l9.6,14.5H333.9z"/>
</g>
<g class="st0">
	<path class="st1" d="M108.6,64.4l5.3-13.9h0.8l-5.3,13.9H108.6z"/>
	<path class="st1" d="M121.9,53h-1.6v-1.1h4.5V53h-1.6v9.8h1.6v1.1h-4.5v-1.1h1.6V53z"/>
	<path class="st1" d="M136.7,62.1c-0.8,1.2-1.7,2-3.1,2c-2.7,0-3.6-2.5-3.6-4.8c0-3.7,2-4.9,3.5-4.9s2.3,0.8,3,2l-1.1,0.6
		c-0.4-0.8-0.9-1.4-1.9-1.4c-1.9,0-2.3,2.3-2.3,3.7c0,1.5,0.3,3.7,2.3,3.7c1.1,0,1.7-0.7,2.2-1.5L136.7,62.1z"/>
	<path class="st1" d="M141.5,54.5h5.9v1.1h-4.6v2.8h3.8v1.1h-3.8v3.3h4.6v1.1h-5.9V54.5z"/>
	<path class="st1" d="M149.5,65.9v-0.6h10.8v0.6H149.5z"/>
	<path class="st1" d="M164.4,63.9h-1.2v-12h2.6c2.1,0,3.3,1.1,3.3,3.2c0,2.2-1.3,3.5-2.9,3.5h-1.8L164.4,63.9L164.4,63.9z
		 M164.4,57.5h1.7c1.1,0,1.8-0.9,1.8-2.4s-0.8-2.1-2.1-2.1h-1.4V57.5z"/>
	<path class="st1" d="M179.8,59.2c0,0.8-0.1,4.8-3.3,4.8c-1.5,0-3.3-1.1-3.3-4.8s1.8-4.9,3.3-4.9C178,54.4,179.8,55.5,179.8,59.2z
		 M174.4,59.2c0,1.4,0.3,3.7,2.1,3.7s2.1-2.3,2.1-3.7s-0.3-3.7-2.1-3.7S174.4,57.9,174.4,59.2z"/>
	<path class="st1" d="M185.4,61c0.2,1.2,0.8,2,2.1,2c1,0,1.8-0.5,1.8-1.6c0-1.2-1-1.4-1.9-1.8c-1.4-0.6-2.7-0.9-2.7-2.7
		c0-1.6,1.3-2.5,2.8-2.5c1.6,0,2.5,0.9,2.9,2.4l-1.2,0.3c-0.2-0.9-0.7-1.6-1.7-1.6c-0.8,0-1.5,0.4-1.5,1.2c0,0.9,0.5,1.1,1.3,1.5
		l2,0.9c0.8,0.5,1.3,1.2,1.3,2.2c0,1.8-1.2,2.8-3,2.8c-1.7,0-2.8-1.1-3.1-2.8L185.4,61z"/>
	<path class="st1" d="M195.5,54.5h5.9v1.1h-4.6v2.8h3.8v1.1h-3.8v3.3h4.6v1.1h-5.9V54.5z"/>
	<path class="st1" d="M207,62.8h1.3v-7.2H207v-1.1h3.9v1.1h-1.3v7.2h1.3v1.1H207V62.8z"/>
	<path class="st1" d="M216.5,54.5h3.1c2.7,0,3.9,1.1,3.9,4.6c0,2.9-0.5,4.8-3.9,4.8h-3.1v-1.1h1v-7.2h-1V54.5z M218.6,62.8h1.3
		c1.6,0,2.3-0.9,2.3-3.6c0-2.9-0.8-3.6-2.3-3.6h-1.2v7.2H218.6z"/>
	<path class="st1" d="M233.8,59.2c0,0.8-0.1,4.8-3.3,4.8c-1.5,0-3.3-1.1-3.3-4.8s1.8-4.9,3.3-4.9C232,54.4,233.8,55.5,233.8,59.2z
		 M228.4,59.2c0,1.4,0.3,3.7,2.1,3.7s2.1-2.3,2.1-3.7s-0.3-3.7-2.1-3.7S228.4,57.9,228.4,59.2z"/>
	<path class="st1" d="M238.2,54.5h1.5l3.6,7.9l0,0l-0.1-2.4v-5.4h1.2V64H243l-3.6-7.9l0,0l0.1,2.4v5.4h-1.2v-9.4H238.2z"/>
	<path class="st1" d="M248.8,62.8l4.4-5.7c0.6-0.7,1-1.3,1-2.3c0-1.1-0.8-2-1.9-2c-1.4,0-2.1,1.1-2.3,2.4l-1.2-0.2
		c0.3-2,1.4-3.4,3.5-3.4c1.9,0,3.2,1.2,3.2,3.1c0,1.2-0.6,2.1-1.3,2.9l-3.9,5.1h5.2v1.1h-6.7V62.8z"/>
</g>
<line class="st2" x1="1.5" y1="2" x2="337.5" y2="2"/>
<line class="st2" x1="1.5" y1="44" x2="337.5" y2="44"/>
<path class="st1" d="M100.4,60.7c0.2,1.2,0.8,2,2.1,2c1,0,1.8-0.5,1.8-1.6c0-1.2-1-1.4-1.9-1.8c-1.4-0.6-2.7-0.9-2.7-2.7
	c0-1.6,1.3-2.5,2.8-2.5c1.6,0,2.5,0.9,2.9,2.4l-1.2,0.3c-0.2-0.9-0.7-1.6-1.7-1.6c-0.8,0-1.5,0.4-1.5,1.2c0,0.9,0.5,1.1,1.3,1.5
	l2,0.9c0.8,0.5,1.3,1.2,1.3,2.2c0,1.8-1.2,2.8-3,2.8c-1.7,0-2.8-1.1-3.1-2.8L100.4,60.7z"/>
</svg>
