<?xml version="1.0" encoding="utf-8"?>
<!-- Generator: Adobe Illustrator 22.0.1, SVG Export Plug-In . SVG Version: 6.00 Build 0)  -->
<svg version="1.1" id="Layer_1" focusable="false" pointer-events="none"
	 xmlns="http://www.w3.org/2000/svg" xmlns:xlink="http://www.w3.org/1999/xlink" x="0px" y="0px" viewBox="0 0 62.9 44"
	 style="enable-background:new 0 0 62.9 44;" xml:space="preserve">
<style type="text/css">
	.st0{fill:#FF0000;}
	.st1{fill:#FFFFFF;}
</style>
<g>
	<g>
		<path class="st0" d="M61.6,6.9C60.8,4.2,58.7,2,56,1.3C51.1,0,31.4,0,31.4,0S11.8,0,6.9,1.3C4.2,2,2,4.2,1.3,6.9C0,11.8,0,22,0,22
			s0,10.2,1.3,15.1C2,39.8,4.2,42,6.9,42.7C11.8,44,31.4,44,31.4,44s19.7,0,24.6-1.3c2.7-0.7,4.8-2.8,5.6-5.6
			c1.3-4.9,1.3-15.1,1.3-15.1S62.9,11.8,61.6,6.9z"/>
		<polygon class="st1" points="25.2,31.4 41.5,22 25.2,12.6 		"/>
	</g>
</g>
</svg>
